name ./resultDataOpenSim/trcMotMarkerGrf/sub06/grf-15-06.mot
datacolumns 19
datarows 12
range 1.60800000 1.65200000
endheader

                time	     ground_force_vx	     ground_force_vy	     ground_force_vz	     ground_force_px	     ground_force_py	     ground_force_pz	   l_ground_force_vx	   l_ground_force_vy	   l_ground_force_vz	   l_ground_force_px	   l_ground_force_py	   l_ground_force_pz	     ground_torque_x	     ground_torque_y	     ground_torque_z	   l_ground_torque_x	   l_ground_torque_y	   l_ground_torque_z	
          1.60800000	        164.66392495	        581.36307342	        -52.14464766	          0.93425898	          0.00000000	          0.08809367	          0.00000000	          0.00000000	          0.00000000	          0.00000000	          0.00000000	          0.00000000	          0.00000000	          2.65491684	          0.00000000	          0.00000000	          0.00000000	          0.00000000	
          1.61200000	        169.64469184	        572.89445716	        -52.02698755	          0.93400539	          0.00000000	          0.08798168	          0.00000000	          0.00000000	          0.00000000	          0.00000000	          0.00000000	          0.00000000	          0.00000000	          2.65928622	          0.00000000	          0.00000000	          0.00000000	          0.00000000	
          1.61600000	        174.40793110	        561.60318053	        -51.06584308	          0.93365368	          0.00000000	          0.08782853	          0.00000000	          0.00000000	          0.00000000	          0.00000000	          0.00000000	          0.00000000	          0.00000000	          2.66564486	          0.00000000	          0.00000000	          0.00000000	          0.00000000	
          1.62000000	        178.98215364	        547.06484986	        -49.26151582	          0.93310440	          0.00000000	          0.08763486	          0.00000000	          0.00000000	          0.00000000	          0.00000000	          0.00000000	          0.00000000	          0.00000000	          2.65525357	          0.00000000	          0.00000000	          0.00000000	          0.00000000	
          1.62400000	        183.23720968	        528.81577659	        -46.71048672	          0.93228901	          0.00000000	          0.08742428	          0.00000000	          0.00000000	          0.00000000	          0.00000000	          0.00000000	          0.00000000	          0.00000000	          2.60680435	          0.00000000	          0.00000000	          0.00000000	          0.00000000	
          1.62800000	        186.76048480	        506.41079587	        -43.53154502	          0.93123536	          0.00000000	          0.08720729	          0.00000000	          0.00000000	          0.00000000	          0.00000000	          0.00000000	          0.00000000	          0.00000000	          2.50444770	          0.00000000	          0.00000000	          0.00000000	          0.00000000	
          1.63200000	        188.91714781	        479.48159580	        -39.83595938	          0.92999915	          0.00000000	          0.08697670	          0.00000000	          0.00000000	          0.00000000	          0.00000000	          0.00000000	          0.00000000	          0.00000000	          2.34461977	          0.00000000	          0.00000000	          0.00000000	          0.00000000	
          1.63600000	        188.99028261	        447.79386040	        -35.74521421	          0.92861535	          0.00000000	          0.08674569	          0.00000000	          0.00000000	          0.00000000	          0.00000000	          0.00000000	          0.00000000	          0.00000000	          2.13846480	          0.00000000	          0.00000000	          0.00000000	          0.00000000	
          1.64000000	        186.27908246	        411.37652369	        -31.38844984	          0.92716194	          0.00000000	          0.08656373	          0.00000000	          0.00000000	          0.00000000	          0.00000000	          0.00000000	          0.00000000	          0.00000000	          1.90929843	          0.00000000	          0.00000000	          0.00000000	          0.00000000	
          1.64400000	        180.13141888	        370.72989787	        -26.88960712	          0.92572767	          0.00000000	          0.08649411	          0.00000000	          0.00000000	          0.00000000	          0.00000000	          0.00000000	          0.00000000	          0.00000000	          1.68669429	          0.00000000	          0.00000000	          0.00000000	          0.00000000	
          1.64800000	        169.98752160	        326.99530176	        -22.38495453	          0.92446379	          0.00000000	          0.08659775	          0.00000000	          0.00000000	          0.00000000	          0.00000000	          0.00000000	          0.00000000	          0.00000000	          1.49960937	          0.00000000	          0.00000000	          0.00000000	          0.00000000	
          1.65200000	        155.52038666	        281.95548807	        -18.04101484	          0.92367167	          0.00000000	          0.08690538	          0.00000000	          0.00000000	          0.00000000	          0.00000000	          0.00000000	          0.00000000	          0.00000000	          1.37064673	          0.00000000	          0.00000000	          0.00000000	          0.00000000	
